<svg id="Ebene_1" data-name="Ebene 1" xmlns="http://www.w3.org/2000/svg" viewBox="0 0 128 128"><path d="M64,53.07A10.62,10.62,0,1,1,74.61,42.46,10.61,10.61,0,0,1,64,53.07m0-26.53A15.92,15.92,0,1,0,79.92,42.46,15.92,15.92,0,0,0,64,26.54M26.85,40.35c0-18.67,17.36-35,37.15-35s37.15,16.37,37.15,35c0,18.33-13.6,40-37.15,77.09C40.18,79.91,26.85,58.68,26.85,40.35M64,0C41.72,0,21.54,18.06,21.54,40.35S40,89.22,64,127.37c24-38.15,42.46-64.74,42.46-87S86.28,0,64,0" style="fill:#43f2ff;fill-rule:evenodd"/></svg>